<?xml version="1.0"?>
<svg xmlns="http://www.w3.org/2000/svg" xmlns:xlink="http://www.w3.org/1999/xlink" xmlns:svgjs="http://svgjs.com/svgjs" version="1.1" width="512" height="512" x="0" y="0" viewBox="0 0 512 512" style="enable-background:new 0 0 512 512" xml:space="preserve" class=""><g><path xmlns="http://www.w3.org/2000/svg" d="m256 92.523438c-90.140625 0-163.472656 73.335937-163.472656 163.476562s73.332031 163.476562 163.472656 163.476562 163.472656-73.335937 163.472656-163.476562-73.332031-163.476562-163.472656-163.476562zm56.785156 121.503906h-83.570312v27.003906l83.570312-.097656v87.039062h-41.785156v23.027344h-30v-23.027344h-41.785156v-30h83.570312v-27.003906l-83.570312.097656v-87.039062h41.785156v-23.027344h30v23.027344h41.785156zm0 0" fill="#d81e05" data-original="#000000" style="" class=""/><path xmlns="http://www.w3.org/2000/svg" d="m256 0c-141.484375 0-256 114.496094-256 256 0 141.484375 114.496094 256 256 256 141.484375 0 256-114.496094 256-256 0-141.484375-114.496094-256-256-256zm0 449.476562c-106.683594 0-193.472656-86.792968-193.472656-193.476562s86.789062-193.476562 193.472656-193.476562 193.472656 86.792968 193.472656 193.476562-86.789062 193.476562-193.472656 193.476562zm0 0" fill="#d81e05" data-original="#000000" style="" class=""/></g></svg>
